<svg width="151" height="163" viewBox="0 0 151 163" fill="none" xmlns="http://www.w3.org/2000/svg">
<g clip-path="url(#clip0_1454_133)">
<path d="M43.5969 64.7378C43.4122 63.9832 42.9989 63.2705 42.3534 62.5865C41.7062 61.9091 40.7829 61.331 39.5953 60.8654C38.4077 60.3998 36.8373 60.1679 34.889 60.1595C32.8696 60.1595 31.228 60.3914 29.9625 60.857C28.697 61.3158 27.7228 61.8722 27.0401 62.5142C26.3506 63.1562 25.9033 63.8537 25.6814 64.6084C25.4679 65.3563 25.3544 66.0185 25.3544 66.59V68.7413L25.3477 77.7617C25.49 77.113 25.8169 76.5987 26.3218 76.2037C26.8266 75.8087 27.4026 75.5062 28.0498 75.2944C28.7037 75.0826 29.3509 74.9347 30.0048 74.8642C30.652 74.7936 31.1568 74.7583 31.5194 74.7583L37.6827 74.765C39.3463 74.765 40.7897 74.1801 42.0196 73.0019C43.2428 71.817 43.8612 70.4069 43.8612 68.7631V66.8303C43.8612 66.1815 43.7765 65.4824 43.5986 64.7361L43.5969 64.7378ZM94.2651 67.6791V65.1042C94.2651 61.3797 92.8014 58.2838 89.879 55.8148C86.9566 53.3458 82.2859 52.1055 75.8668 52.1055C72.6174 52.1055 69.8374 52.4517 67.535 53.1274C65.2242 53.8114 63.3115 54.7358 61.797 55.9207C60.2824 57.0989 59.1812 58.4805 58.4917 60.0536C57.809 61.6268 57.4685 63.3125 57.4685 65.1042V96.885C57.4685 98.1691 57.7023 99.5859 58.1715 101.124C58.6408 102.662 59.5573 104.079 60.9296 105.363C62.3018 106.653 64.1789 107.726 66.5609 108.586C68.9361 109.447 72.0414 109.877 75.8668 109.877C79.6921 109.877 82.7907 109.447 85.1727 108.586C87.5546 107.726 89.4317 106.653 90.804 105.363C92.1694 104.079 93.0928 102.662 93.562 101.124C94.0313 99.5859 94.2651 98.1691 94.2651 96.885V93.7673H85.1727C85.1727 96.3489 84.5255 98.3304 83.2244 99.7271C81.9233 101.124 79.4702 101.821 75.8668 101.821C72.2634 101.821 69.9085 101.159 68.6159 99.833C67.3148 98.5136 66.6676 96.49 66.6676 93.7673V67.6774C66.6676 65.6034 67.2928 63.8268 68.5583 62.3596C69.8238 60.8923 72.2549 60.1595 75.8668 60.1595C77.666 60.1595 79.1653 60.3561 80.3596 60.7511C81.5472 61.1461 82.4993 61.6604 83.2244 62.3092C83.9427 62.9512 84.4476 63.6487 84.739 64.4033C85.0304 65.1513 85.1727 65.884 85.1727 66.6034V67.6757H94.2651V67.6791ZM125.247 64.6185C125.034 63.8638 124.587 63.173 123.897 62.5243C123.214 61.8822 122.256 61.3259 121.032 60.8604C119.802 60.3948 118.146 60.1629 116.048 60.1629C114.1 60.1629 112.536 60.3948 111.342 60.8604C110.154 61.3259 109.231 61.8974 108.584 62.5814C107.937 63.2588 107.518 63.9916 107.34 64.7815C107.163 65.5714 107.071 66.2488 107.071 66.8202V95.1673C107.071 95.7455 107.164 96.4228 107.34 97.206C107.518 97.996 107.938 98.7288 108.584 99.4145C109.231 100.092 110.154 100.663 111.342 101.129C112.536 101.594 114.1 101.826 116.048 101.826C118.146 101.826 119.802 101.594 121.032 101.129C122.256 100.663 123.214 100.107 123.897 99.4649C124.587 98.8229 125.034 98.1254 125.247 97.3707C125.468 96.6228 125.574 95.9253 125.574 95.2766V66.7177C125.574 66.0757 125.468 65.3782 125.247 64.6235V64.6185ZM144.251 41.9909C144.229 41.969 144.201 41.9489 144.173 41.927L98.4598 4.89225C90.5194 -1.53988 77.5931 -1.63232 69.5172 4.63173C76.5834 2.9174 84.5814 4.31408 90.1416 8.81506L135.863 45.8515C135.885 45.8733 135.912 45.8935 135.934 45.9154C139.226 48.6096 141.088 52.6517 141.088 56.8754V112.835C141.088 117.85 138.912 122.363 135.492 125.419C143.327 124.291 149.406 117.301 149.406 108.921V52.961C149.406 48.7289 147.544 44.6884 144.252 41.9926L144.251 41.9909ZM125.247 64.6185C125.034 63.8638 124.587 63.173 123.897 62.5243C123.214 61.8822 122.256 61.3259 121.032 60.8604C119.802 60.3948 118.146 60.1629 116.048 60.1629C114.1 60.1629 112.536 60.3948 111.342 60.8604C110.154 61.3259 109.231 61.8974 108.584 62.5814C107.937 63.2588 107.518 63.9916 107.34 64.7815C107.163 65.5714 107.071 66.2488 107.071 66.8202V95.1673C107.071 95.7455 107.164 96.4228 107.34 97.206C107.518 97.996 107.938 98.7288 108.584 99.4145C109.231 100.092 110.154 100.663 111.342 101.129C112.536 101.594 114.1 101.826 116.048 101.826C118.146 101.826 119.802 101.594 121.032 101.129C122.256 100.663 123.214 100.107 123.897 99.4649C124.587 98.8229 125.034 98.1254 125.247 97.3707C125.468 96.6228 125.574 95.9253 125.574 95.2766V66.7177C125.574 66.0757 125.468 65.3782 125.247 64.6235V64.6185ZM94.2651 67.6791V65.1042C94.2651 61.3797 92.8014 58.2838 89.879 55.8148C86.9566 53.3458 82.2859 52.1055 75.8668 52.1055C72.6174 52.1055 69.8374 52.4517 67.535 53.1274C65.2242 53.8114 63.3115 54.7358 61.797 55.9207C60.2824 57.0989 59.1812 58.4805 58.4917 60.0536C57.809 61.6268 57.4685 63.3125 57.4685 65.1042V96.885C57.4685 98.1691 57.7023 99.5859 58.1715 101.124C58.6408 102.662 59.5573 104.079 60.9296 105.363C62.3018 106.653 64.1789 107.726 66.5609 108.586C68.9361 109.447 72.0414 109.877 75.8668 109.877C79.6921 109.877 82.7907 109.447 85.1727 108.586C87.5546 107.726 89.4317 106.653 90.804 105.363C92.1694 104.079 93.0928 102.662 93.562 101.124C94.0313 99.5859 94.2651 98.1691 94.2651 96.885V93.7673H85.1727C85.1727 96.3489 84.5255 98.3304 83.2244 99.7271C81.9233 101.124 79.4702 101.821 75.8668 101.821C72.2634 101.821 69.9085 101.159 68.6159 99.833C67.3148 98.5136 66.6676 96.49 66.6676 93.7673V67.6774C66.6676 65.6034 67.2928 63.8268 68.5583 62.3596C69.8238 60.8923 72.2549 60.1595 75.8668 60.1595C77.666 60.1595 79.1653 60.3561 80.3596 60.7511C81.5472 61.1461 82.4993 61.6604 83.2244 62.3092C83.9427 62.9512 84.4476 63.6487 84.739 64.4033C85.0304 65.1513 85.1727 65.884 85.1727 66.6034V67.6757H94.2651V67.6791ZM43.5969 64.7378C43.4122 63.9832 42.9989 63.2705 42.3534 62.5865C41.7062 61.9091 40.7829 61.331 39.5953 60.8654C38.4077 60.3998 36.8373 60.1679 34.889 60.1595C32.8696 60.1595 31.228 60.3914 29.9625 60.857C28.697 61.3158 27.7228 61.8722 27.0401 62.5142C26.3506 63.1562 25.9033 63.8537 25.6814 64.6084C25.4679 65.3563 25.3544 66.0185 25.3544 66.59V68.7413L25.3477 77.7617C25.49 77.113 25.8169 76.5987 26.3218 76.2037C26.8266 75.8087 27.4026 75.5062 28.0498 75.2944C28.7037 75.0826 29.3509 74.9347 30.0048 74.8642C30.652 74.7936 31.1568 74.7583 31.5194 74.7583L37.6827 74.765C39.3463 74.765 40.7897 74.1801 42.0196 73.0019C43.2428 71.817 43.8612 70.4069 43.8612 68.7631V66.8303C43.8612 66.1815 43.7765 65.4824 43.5986 64.7361L43.5969 64.7378Z" fill="#3A873A"/>
<path d="M43.5969 64.7385C43.4123 63.9838 42.9989 63.2712 42.3534 62.5871C41.7063 61.9098 40.783 61.3316 39.5954 60.8661C38.4078 60.4005 36.8373 60.1686 34.8891 60.1602C32.8697 60.1602 31.2281 60.3921 29.9625 60.8577C28.697 61.3165 27.7229 61.8728 27.0402 62.5149C26.3506 63.1569 25.9034 63.8544 25.6815 64.6091C25.468 65.357 25.3545 66.0192 25.3545 66.5906V68.742L25.3477 77.7624C25.49 77.1136 25.817 76.5993 26.3218 76.2044C26.8267 75.8094 27.4027 75.5069 28.0499 75.2951C28.7038 75.0833 29.351 74.9354 30.0049 74.8648C30.6521 74.7942 31.1569 74.7589 31.5194 74.7589L37.6827 74.7657C39.3464 74.7657 40.7898 74.1808 42.0197 73.0026C43.2429 71.8177 43.8612 70.4075 43.8612 68.7638V66.831C43.8612 66.1822 43.7765 65.483 43.5986 64.7368L43.5969 64.7385ZM94.2651 67.6797V65.1049C94.2651 61.3804 92.8014 58.2845 89.879 55.8155C86.9566 53.3465 82.2859 52.1061 75.8668 52.1061C72.6175 52.1061 69.8374 52.4524 67.5351 53.128C65.2243 53.8121 63.3116 54.7365 61.797 55.9214C60.2825 57.0996 59.1813 58.4811 58.4918 60.0543C57.809 61.6274 57.4685 63.3132 57.4685 65.1049V96.8857C57.4685 98.1698 57.7023 99.5866 58.1716 101.124C58.6409 102.662 59.5574 104.079 60.9296 105.363C62.3019 106.654 64.179 107.726 66.561 108.587C68.9361 109.447 72.0415 109.878 75.8668 109.878C79.6922 109.878 82.7908 109.447 85.1727 108.587C87.5547 107.726 89.4318 106.654 90.804 105.363C92.1695 104.079 93.0928 102.662 93.5621 101.124C94.0314 99.5866 94.2651 98.1698 94.2651 96.8857V93.7679H85.1727C85.1727 96.3495 84.5256 98.3311 83.2245 99.7278C81.9234 101.124 79.4703 101.822 75.8668 101.822C72.2634 101.822 69.9086 101.16 68.6159 99.8337C67.3148 98.5143 66.6677 96.4907 66.6677 93.7679V67.6781C66.6677 65.604 67.2928 63.8275 68.5583 62.3602C69.8238 60.893 72.2549 60.1602 75.8668 60.1602C77.666 60.1602 79.1653 60.3568 80.3597 60.7518C81.5473 61.1468 82.4994 61.6611 83.2245 62.3098C83.9428 62.9519 84.4476 63.6494 84.739 64.404C85.0304 65.1519 85.1727 65.8847 85.1727 66.6041V67.6764H94.2651V67.6797ZM124.936 129.5H26.0643C17.1769 129.5 9.91245 122.002 9.91245 112.834V56.8744C9.91245 52.649 11.7743 48.6086 15.066 45.9144C15.088 45.8925 15.1151 45.8723 15.1439 45.8505L60.8585 8.81405C63.0981 7.00895 65.7207 5.69631 68.5295 4.89292C62.3866 4.24416 55.9607 5.86606 51.268 9.7603L5.54666 47.669C5.52464 47.6909 5.49753 47.7111 5.47551 47.7329C2.17703 50.491 0.313477 54.5818 0.313477 58.8627V116.232C0.313477 125.613 7.5864 133.287 16.4738 133.287H115.344C119.169 133.287 122.694 131.862 125.475 129.485C125.297 129.498 125.119 129.498 124.934 129.498L124.936 129.5ZM125.247 64.6191C125.034 63.8645 124.587 63.1737 123.897 62.525C123.215 61.8829 122.256 61.3266 121.032 60.861C119.803 60.3955 118.146 60.1635 116.048 60.1635C114.1 60.1635 112.536 60.3955 111.342 60.861C110.154 61.3266 109.231 61.898 108.584 62.5821C107.937 63.2594 107.518 63.9922 107.34 64.7822C107.163 65.5721 107.071 66.2494 107.071 66.8209V95.168C107.071 95.7461 107.164 96.4235 107.34 97.2067C107.518 97.9966 107.939 98.7294 108.584 99.4152C109.231 100.092 110.154 100.664 111.342 101.13C112.536 101.595 114.1 101.827 116.048 101.827C118.146 101.827 119.803 101.595 121.032 101.13C122.256 100.664 123.215 100.108 123.897 99.4656C124.587 98.8235 125.034 98.1261 125.247 97.3714C125.468 96.6235 125.574 95.926 125.574 95.2772V66.7184C125.574 66.0763 125.468 65.3788 125.247 64.6242V64.6191Z" fill="#B8C429"/>
<path d="M43.5969 64.7379C43.4122 63.9832 42.9989 63.2706 42.3534 62.5866C41.7062 61.9092 40.7829 61.3311 39.5953 60.8655C38.4077 60.3999 36.8373 60.168 34.889 60.1596C32.8696 60.1596 31.228 60.3915 29.9625 60.8571C28.697 61.3159 27.7228 61.8723 27.0401 62.5143C26.3506 63.1563 25.9033 63.8538 25.6814 64.6085C25.4679 65.3564 25.3544 66.0186 25.3544 66.5901V68.7414L25.3477 77.7618C25.49 77.1131 25.8169 76.5988 26.3218 76.2038C26.8266 75.8088 27.4026 75.5063 28.0498 75.2945C28.7037 75.0827 29.3509 74.9348 30.0048 74.8643C30.652 74.7937 31.1568 74.7584 31.5194 74.7584L37.6827 74.7651C39.3463 74.7651 40.7897 74.1802 42.0196 73.002C43.2428 71.8171 43.8612 70.407 43.8612 68.7632V66.8304C43.8612 66.1816 43.7765 65.4825 43.5986 64.7362L43.5969 64.7379ZM68.5295 4.89235C68.7209 4.90579 68.914 4.92764 69.0987 4.95622L69.1766 4.89235C69.2901 4.79991 69.4037 4.71587 69.5172 4.63184C69.1834 4.70915 68.8564 4.79487 68.5295 4.89235ZM94.2651 67.6792V65.1043C94.2651 61.3798 92.8014 58.2839 89.879 55.8149C86.9566 53.3459 82.2859 52.1056 75.8668 52.1056C72.6174 52.1056 69.8374 52.4518 67.535 53.1275C65.2242 53.8115 63.3115 54.7359 61.797 55.9208C60.2824 57.099 59.1812 58.4806 58.4917 60.0537C57.809 61.6269 57.4685 63.3126 57.4685 65.1043V96.8851C57.4685 98.1692 57.7023 99.586 58.1715 101.124C58.6408 102.662 59.5573 104.079 60.9296 105.363C62.3018 106.653 64.1789 107.726 66.5609 108.586C68.9361 109.447 72.0414 109.877 75.8668 109.877C79.6921 109.877 82.7907 109.447 85.1727 108.586C87.5546 107.726 89.4317 106.653 90.804 105.363C92.1694 104.079 93.0928 102.662 93.562 101.124C94.0313 99.586 94.2651 98.1692 94.2651 96.8851V93.7674H85.1727C85.1727 96.349 84.5255 98.3305 83.2244 99.7272C81.9233 101.124 79.4702 101.821 75.8668 101.821C72.2634 101.821 69.9085 101.159 68.6159 99.8331C67.3148 98.5137 66.6676 96.4901 66.6676 93.7674V67.6775C66.6676 65.6035 67.2928 63.8269 68.5583 62.3597C69.8238 60.8924 72.2549 60.1596 75.8668 60.1596C77.666 60.1596 79.1653 60.3562 80.3596 60.7512C81.5472 61.1462 82.4993 61.6605 83.2244 62.3092C83.9427 62.9513 84.4476 63.6488 84.739 64.4034C85.0304 65.1514 85.1727 65.8841 85.1727 66.6035V67.6758H94.2651V67.6792ZM125.247 64.6186C125.034 63.8639 124.587 63.1731 123.897 62.5244C123.214 61.8823 122.256 61.326 121.032 60.8605C119.802 60.3949 118.146 60.163 116.048 60.163C114.1 60.163 112.536 60.3949 111.342 60.8605C110.154 61.326 109.231 61.8975 108.584 62.5815C107.937 63.2589 107.518 63.9917 107.34 64.7816C107.163 65.5715 107.071 66.2489 107.071 66.8203V95.1674C107.071 95.7456 107.164 96.4229 107.34 97.2061C107.518 97.9961 107.938 98.7289 108.584 99.4146C109.231 100.092 110.154 100.663 111.342 101.129C112.536 101.594 114.1 101.826 116.048 101.826C118.146 101.826 119.802 101.594 121.032 101.129C122.256 100.663 123.214 100.107 123.897 99.465C124.587 98.823 125.034 98.1255 125.247 97.3708C125.468 96.6229 125.574 95.9254 125.574 95.2767V66.7178C125.574 66.0757 125.468 65.3783 125.247 64.6236V64.6186Z" fill="#005A32"/>
<path d="M135.932 45.9141C135.91 45.8923 135.883 45.8721 135.861 45.8503L90.1413 8.81383C84.5811 4.31453 76.5831 2.91785 69.5169 4.6305C69.4034 4.71454 69.2899 4.80026 69.1764 4.89102L69.0984 4.95488C68.9138 4.92631 68.7223 4.90614 68.5292 4.89102C65.7203 5.6944 63.0978 7.00705 60.8582 8.81215L15.1436 45.8503C15.1148 45.8721 15.086 45.8923 15.0657 45.9141C11.774 48.6083 9.91211 52.6505 9.91211 56.8741V112.834C9.91211 122.002 17.1783 129.5 26.064 129.5H124.934C125.118 129.5 125.296 129.5 125.474 129.486C129.293 129.359 132.783 127.843 135.492 125.417C138.912 122.364 141.087 117.849 141.087 112.834V56.8741C141.087 52.6488 139.224 48.6083 135.934 45.9141H135.932ZM53.0584 67.8056V70.2745C53.0584 71.4948 52.8161 72.8494 52.3468 74.352C51.8775 75.8546 50.7764 77.4697 49.0416 79.1841C48.2453 80.0446 47.3491 80.6866 46.3326 81.1169C45.3229 81.5404 44.42 81.8648 43.6305 82.0766C42.6919 82.3657 41.7178 82.5069 40.7081 82.5069L32.4831 82.4934C30.606 82.4934 28.9423 83.1775 27.4989 84.5321C26.0555 85.8935 25.3304 87.5726 25.3304 89.5743L25.3237 94.4064C25.3237 96.1274 25.6439 97.4888 26.291 98.4905C26.5824 98.9914 26.9026 99.4217 27.2651 99.7813C27.6277 100.141 28.1681 100.459 28.8864 100.748C29.4692 101.037 30.2011 101.284 31.1041 101.502C32.007 101.714 33.1794 101.827 34.6228 101.827C36.4999 101.827 37.9789 101.637 39.0597 101.242C40.1473 100.854 40.9012 100.509 41.3349 100.227C42.2735 99.5141 42.9274 98.6536 43.29 97.6519C43.6525 96.6502 43.8304 95.5711 43.8304 94.4282L53.0296 94.435V97.0165C53.0296 98.9494 52.6094 100.734 51.7776 102.385C50.9458 104.029 49.6667 105.461 47.9319 106.672C46.702 107.533 45.0095 108.281 42.841 108.923C40.6793 109.565 37.9348 109.882 34.616 109.882C32.1629 109.882 30.03 109.677 28.2325 109.282C26.4265 108.888 24.8561 108.387 23.5262 107.773C22.1895 107.166 21.0951 106.469 20.2277 105.679C19.4382 104.96 18.7707 104.247 18.2303 103.528C18.1727 103.457 18.1168 103.386 18.066 103.316C16.7649 101.454 16.1533 99.3023 16.2312 96.8686V94.3997L16.238 89.5676L16.26 67.8795V67.7669L16.2668 65.0862C16.2668 64.2256 16.4091 63.0827 16.7005 61.6508C16.9275 60.5364 17.4324 59.4221 18.2286 58.3078C18.4489 57.9901 18.7047 57.6725 18.9757 57.3548C20.2057 55.9228 22.0472 54.6959 24.5003 53.6589C26.9534 52.6219 30.3519 52.1076 34.6804 52.1076C39.0106 52.1143 42.3938 52.637 44.8469 53.6808C47.3 54.7178 49.1415 55.9581 50.363 57.3901C51.5862 58.8221 52.3468 60.2742 52.6314 61.7415C52.916 63.2088 53.0651 64.3366 53.0651 65.1198L53.0584 67.8072V67.8056ZM94.2648 67.6795H85.1724V66.6072C85.1724 65.8879 85.0301 65.1551 84.7387 64.4071C84.4473 63.6525 83.9424 62.955 83.2241 62.313C82.499 61.6642 81.5469 61.1499 80.3593 60.7549C79.165 60.36 77.6657 60.1633 75.8665 60.1633C72.2546 60.1633 69.8235 60.8961 68.558 62.3634C67.2925 63.8307 66.6673 65.6072 66.6673 67.6812V93.7711C66.6673 96.4938 67.3145 98.5174 68.6156 99.8368C69.9099 101.163 72.3274 101.825 75.8665 101.825C79.4055 101.825 81.923 101.128 83.2241 99.7309C84.5252 98.3342 85.1724 96.3527 85.1724 93.7711H94.2648V96.8888C94.2648 98.1729 94.031 99.5897 93.5617 101.128C93.0925 102.665 92.1675 104.082 90.8037 105.366C89.4314 106.657 87.5543 107.729 85.1724 108.59C82.7904 109.451 79.6919 109.881 75.8665 109.881C72.0411 109.881 68.9341 109.451 66.5606 108.59C64.1787 107.729 62.3016 106.657 60.9293 105.366C59.5571 104.082 58.6405 102.665 58.1712 101.128C57.702 99.5897 57.4682 98.1729 57.4682 96.8888V65.108C57.4682 63.3163 57.8087 61.6306 58.4914 60.0574C59.181 58.4843 60.2838 57.1027 61.7967 55.9245C63.3113 54.7396 65.2239 53.8152 67.5347 53.1312C69.8388 52.4538 72.6171 52.1093 75.8665 52.1093C82.2856 52.1093 86.958 53.3513 89.8787 55.8186C92.8011 58.2876 94.2648 61.3835 94.2648 65.108V67.6829V67.6795ZM134.773 96.8871C134.773 97.7477 134.631 98.8906 134.34 100.323C134.055 101.755 133.294 103.186 132.071 104.618C131.893 104.824 131.702 105.027 131.495 105.232C130.294 106.403 128.644 107.432 126.547 108.321C124.093 109.358 120.702 109.879 116.373 109.879C112.045 109.879 108.653 109.356 106.2 108.321C103.747 107.284 101.905 106.05 100.684 104.618C99.4539 103.186 98.6933 101.734 98.4087 100.267C98.1173 98.7998 97.975 97.6787 97.975 96.8888V65.108C97.975 64.3181 98.1173 63.1903 98.4087 61.723C98.6933 60.2557 99.4539 58.8103 100.684 57.3716C101.907 55.9464 103.749 54.706 106.2 53.669C108.653 52.632 112.043 52.111 116.373 52.111C120.703 52.111 124.093 52.6337 126.547 53.669C128.644 54.5581 130.294 55.5867 131.495 56.7582C131.702 56.9632 131.893 57.1666 132.071 57.3716C133.294 58.8103 134.055 60.2423 134.34 61.6676C134.631 63.1063 134.773 64.2492 134.773 65.1097V96.8905V96.8871Z" fill="#005A32"/>
<path d="M52.6314 61.7394C52.3468 60.2721 51.5861 58.82 50.363 57.388C49.1398 55.956 47.2983 54.7156 44.8469 53.6786C42.3937 52.6349 39.0106 52.1122 34.6804 52.1055C30.3501 52.1055 26.9517 52.6198 24.5003 53.6568C22.0472 54.6938 20.2057 55.9207 18.9757 57.3527C18.7063 57.6703 18.4488 57.988 18.2286 58.3057C17.4324 59.42 16.9275 60.5343 16.7005 61.6486C16.4091 63.0806 16.2668 64.2235 16.2668 65.084L16.26 67.7648V67.8774L16.238 89.5655L16.2312 94.3975V96.8665C16.1533 99.3002 16.7649 101.452 18.066 103.314C18.1151 103.384 18.1727 103.455 18.2303 103.526C18.7707 104.245 19.4382 104.958 20.2277 105.677C21.0951 106.467 22.1895 107.164 23.5262 107.771C24.8561 108.385 26.4265 108.885 28.2325 109.28C30.0316 109.675 32.1646 109.88 34.616 109.88C37.9365 109.88 40.681 109.563 42.841 108.921C45.0095 108.279 46.7019 107.531 47.9319 106.67C49.6667 105.457 50.9457 104.025 51.7776 102.383C52.6094 100.732 53.0295 98.9472 53.0295 97.0144V94.4328L43.8304 94.4261C43.8304 95.569 43.6525 96.648 43.2899 97.6497C42.9274 98.6514 42.2735 99.512 41.3349 100.225C40.9012 100.507 40.1473 100.852 39.0597 101.24C37.9788 101.635 36.4999 101.825 34.6227 101.825C33.1793 101.825 32.007 101.712 31.104 101.5C30.2011 101.282 29.4692 101.035 28.8864 100.746C28.1681 100.457 27.6277 100.139 27.2651 99.7792C26.9026 99.4195 26.5824 98.9893 26.291 98.4884C25.6438 97.4867 25.3236 96.1253 25.3236 94.4043L25.3304 89.5722C25.3304 87.5688 26.0555 85.8897 27.4989 84.53C28.9423 83.1753 30.606 82.4913 32.4831 82.4913L40.7081 82.5047C41.7178 82.5047 42.6919 82.3635 43.6305 82.0745C44.4199 81.8627 45.3229 81.5383 46.3326 81.1148C47.3491 80.6845 48.2453 80.0425 49.0415 79.1819C50.7763 77.4676 51.8775 75.8524 52.3468 74.3499C52.8161 72.8473 53.0583 71.4926 53.0583 70.2724V67.8034L53.0651 65.116C53.0651 64.3327 52.916 63.205 52.6314 61.7377V61.7394ZM43.8592 68.7648C43.8592 70.4086 43.2408 71.8187 42.0177 73.0036C40.7877 74.1818 39.3443 74.7667 37.6807 74.7667L31.5174 74.76C31.1549 74.76 30.65 74.7952 30.0028 74.8658C29.3489 74.9364 28.7017 75.0843 28.0478 75.2961C27.4007 75.5079 26.8246 75.8104 26.3198 76.2054C25.8149 76.6003 25.488 77.1146 25.3457 77.7634L25.3524 68.743V66.5916C25.3524 66.0202 25.4659 65.358 25.6794 64.6101C25.8996 63.8554 26.3469 63.1579 27.0381 62.5159C27.7208 61.8738 28.695 61.3175 29.9605 60.8587C31.226 60.3931 32.8676 60.1612 34.887 60.1612C36.8353 60.1679 38.4058 60.4015 39.5933 60.8671C40.7809 61.3326 41.7042 61.9108 42.3514 62.5882C42.9986 63.2722 43.4102 63.9848 43.5949 64.7395C43.7728 65.4874 43.8575 66.1849 43.8575 66.8337V68.7665L43.8592 68.7648Z" fill="white"/>
<path d="M94.2644 67.6791V65.1042C94.2644 61.3797 92.8007 58.2838 89.8783 55.8148C86.9559 53.3458 82.2852 52.1055 75.8661 52.1055C72.6167 52.1055 69.8367 52.4517 67.5343 53.1274C65.2235 53.8114 63.3108 54.7358 61.7963 55.9207C60.2817 57.0989 59.1805 58.4805 58.491 60.0536C57.8083 61.6268 57.4678 63.3125 57.4678 65.1042V96.885C57.4678 98.1691 57.7016 99.5859 58.1708 101.124C58.6401 102.662 59.5566 104.079 60.9289 105.363C62.3011 106.653 64.1782 107.726 66.5602 108.586C68.9354 109.447 72.0407 109.877 75.8661 109.877C79.6914 109.877 82.79 109.447 85.172 108.586C87.5539 107.726 89.431 106.653 90.8033 105.363C92.1688 104.079 93.0921 102.662 93.5613 101.124C94.0306 99.5859 94.2644 98.1691 94.2644 96.885V93.7673H85.172C85.172 96.3489 84.5248 98.3304 83.2237 99.7271C81.9226 101.124 79.4695 101.821 75.8661 101.821C72.2627 101.821 69.9078 101.159 68.6152 99.833C67.3141 98.5136 66.6669 96.49 66.6669 93.7673V67.6774C66.6669 65.6034 67.2921 63.8268 68.5576 62.3596C69.8231 60.8923 72.2542 60.1595 75.8661 60.1595C77.6653 60.1595 79.1646 60.3561 80.3589 60.7511C81.5465 61.1461 82.4986 61.6604 83.2237 62.3091C83.942 62.9512 84.4469 63.6487 84.7383 64.4033C85.0297 65.1513 85.172 65.884 85.172 66.6034V67.6757H94.2644V67.6791Z" fill="white"/>
<path d="M134.339 61.6621C134.055 60.2368 133.294 58.8048 132.071 57.3661C131.893 57.1611 131.701 56.9577 131.495 56.7527C130.294 55.5812 128.644 54.5526 126.546 53.6635C124.093 52.6265 120.701 52.1055 116.373 52.1055C112.044 52.1055 108.653 52.6282 106.2 53.6635C103.747 54.7005 101.905 55.9409 100.684 57.3661C99.4536 58.8048 98.6929 60.2503 98.4083 61.7175C98.1169 63.1848 97.9746 64.3126 97.9746 65.1025V96.8833C97.9746 97.6733 98.1169 98.7943 98.4083 100.262C98.6929 101.729 99.4536 103.181 100.684 104.613C101.907 106.045 103.748 107.279 106.2 108.316C108.653 109.353 112.043 109.874 116.373 109.874C120.703 109.874 124.093 109.351 126.546 108.316C128.644 107.427 130.294 106.398 131.495 105.226C131.701 105.021 131.893 104.818 132.071 104.613C133.294 103.181 134.055 101.749 134.339 100.317C134.631 98.8851 134.773 97.7422 134.773 96.8816V65.1008C134.773 64.2403 134.631 63.0974 134.339 61.6587V61.6621ZM125.574 95.2715C125.574 95.9203 125.467 96.6194 125.247 97.3657C125.033 98.1203 124.586 98.8178 123.897 99.4599C123.214 100.102 122.255 100.658 121.032 101.124C119.802 101.589 118.145 101.821 116.048 101.821C114.099 101.821 112.536 101.589 111.341 101.124C110.154 100.658 109.23 100.087 108.583 99.4094C107.936 98.7254 107.518 97.9926 107.34 97.201C107.162 96.4178 107.07 95.7404 107.07 95.1623V66.8152C107.07 66.2437 107.164 65.5664 107.34 64.7764C107.518 63.9865 107.938 63.2537 108.583 62.5764C109.23 61.8923 110.154 61.3209 111.341 60.8553C112.536 60.3898 114.099 60.1578 116.048 60.1578C118.145 60.1578 119.802 60.3898 121.032 60.8553C122.255 61.3209 123.214 61.8772 123.897 62.5192C124.586 63.168 125.033 63.8588 125.247 64.6134C125.467 65.3681 125.574 66.0656 125.574 66.7076V95.2665V95.2715Z" fill="white"/>
<path d="M0 146.091H2.25659V155.864C2.25659 157.639 2.5717 158.953 3.20192 159.806C3.83213 160.658 4.79271 161.085 6.08533 161.085C7.37796 161.085 8.37581 160.627 9.03652 159.713C9.69723 158.799 10.0276 157.446 10.0276 155.656V146.092H12.1351V155.703C12.1351 158.132 11.6269 159.955 10.6087 161.174C9.5905 162.392 8.0607 163.001 6.01587 163.001C3.97105 163.001 2.54459 162.406 1.52642 161.214C0.508241 160.022 0 158.264 0 155.936V146.092L0 146.091Z" fill="#502118"/>
<path d="M19.0366 146.091H23.4007C25.2473 146.091 26.6348 146.447 27.5649 147.159C28.495 147.872 28.9608 148.933 28.9608 150.341C28.9608 151.392 28.6576 152.266 28.0494 152.963C27.4412 153.661 26.5687 154.133 25.4286 154.382C25.9148 154.514 26.3095 154.74 26.6128 155.059C26.916 155.378 27.2311 155.935 27.5581 156.728L30.0078 162.683H27.5801L25.4489 157.252C25.1677 156.551 24.8153 156.057 24.3884 155.77C23.9631 155.482 23.3583 155.338 22.5773 155.338H21.2779V162.683H19.0332V146.089L19.0366 146.091ZM21.2813 147.879V153.531H23.0246C24.1563 153.531 25.044 153.276 25.6844 152.766C26.3265 152.257 26.6466 151.555 26.6466 150.659C26.6466 149.701 26.3485 148.998 25.7521 148.551C25.1558 148.104 24.224 147.881 22.9551 147.881H21.2796L21.2813 147.879Z" fill="#502118"/>
<path d="M35.1579 146.091H39.5C41.2551 146.091 42.6104 146.457 43.5676 147.188C44.5248 147.919 45.0026 148.948 45.0026 150.271C45.0026 151.19 44.7484 151.967 44.2385 152.6C43.7303 153.236 42.9882 153.684 42.0158 153.948C43.1407 154.229 43.9962 154.716 44.5858 155.414C45.1737 156.111 45.4685 156.989 45.4685 158.047C45.4685 159.518 44.9517 160.659 43.9183 161.469C42.8849 162.28 41.4195 162.685 39.5203 162.685H35.1562V146.091H35.1579ZM37.4027 147.901V153.19H39.0545C40.2234 153.19 41.1213 152.957 41.743 152.489C42.3665 152.022 42.6765 151.357 42.6765 150.493C42.6765 149.629 42.3834 149.01 41.799 148.567C41.2145 148.123 40.3708 147.901 39.2696 147.901H37.401H37.4027ZM37.4027 154.99V160.794H39.1239C40.4386 160.794 41.4313 160.545 42.1039 160.046C42.7765 159.548 43.1119 158.816 43.1119 157.851C43.1119 156.886 42.8002 156.197 42.1767 155.715C41.5533 155.232 40.63 154.99 39.4085 154.99H37.4027Z" fill="#502118"/>
<path d="M55.9265 146.091H58.6846L65.0308 162.685H62.5811L61.0208 158.422H53.3176L51.7573 162.685H49.4668L55.9282 146.091H55.9265ZM57.2598 148.123L54.046 156.565H60.3703L57.2598 148.123Z" fill="#502118"/>
<path d="M69.5869 146.091H72.4348L79.4773 159.005C79.5755 159.192 79.6958 159.478 79.8364 159.864C79.977 160.249 80.1227 160.703 80.2752 161.224C80.177 160.617 80.1007 160.069 80.0465 159.583C79.994 159.098 79.9669 158.679 79.9669 158.328V146.091H82.0524V162.684H79.2723L72.1044 149.652C72.0129 149.496 71.9028 149.234 71.774 148.864C71.6453 148.494 71.5013 148.013 71.3403 147.422C71.4539 148.309 71.5352 148.995 71.586 149.477C71.6351 149.96 71.6605 150.306 71.6605 150.516V162.683H69.5869V146.089V146.091Z" fill="#502118"/>
<path d="M88.8408 146.091H91.1093V162.685H88.8408V146.091Z" fill="#502118"/>
<path d="M106.272 146.524L106.043 148.556C105.541 148.307 105.026 148.121 104.499 147.997C103.971 147.872 103.419 147.81 102.841 147.81C101.86 147.81 101.096 147.997 100.545 148.37C99.9947 148.743 99.7186 149.257 99.7186 149.911C99.7186 150.425 99.9049 150.892 100.278 151.313C100.65 151.733 101.452 152.289 102.682 152.982C104.284 153.884 105.389 154.706 105.997 155.446C106.605 156.185 106.908 157.03 106.908 157.98C106.908 159.389 106.405 160.545 105.399 161.447C104.393 162.35 103.098 162.802 101.519 162.802C100.752 162.802 100.018 162.74 99.3205 162.616C98.6208 162.491 97.9685 162.308 97.3604 162.068L97.5891 159.837C98.2565 160.195 98.9037 160.461 99.5255 160.631C100.149 160.802 100.755 160.888 101.348 160.888C102.297 160.888 103.061 160.669 103.639 160.234C104.217 159.799 104.505 159.222 104.505 158.506C104.505 157.393 103.369 156.175 101.098 154.851C100.718 154.632 100.428 154.461 100.232 154.336C99.3662 153.822 98.6869 153.197 98.1922 152.456C97.6975 151.716 97.4518 150.956 97.4518 150.178C97.4518 148.886 97.9313 147.86 98.8935 147.101C99.8541 146.341 101.162 145.963 102.819 145.963C103.434 145.963 104.03 146.01 104.608 146.102C105.186 146.197 105.74 146.336 106.272 146.523V146.524Z" fill="#502118"/>
<path d="M112.969 146.091H116.399L121.185 158.958C121.299 159.269 121.389 159.602 121.453 159.957C121.517 160.311 121.561 160.683 121.583 161.073C121.636 160.567 121.695 160.127 121.76 159.753C121.824 159.38 121.89 159.103 121.96 158.925L126.928 146.092H130.313V162.686H128.114V149.654C128.114 149.249 128.13 148.832 128.16 148.405C128.191 147.977 128.24 147.533 128.307 147.074C128.209 147.511 128.102 147.921 127.989 148.306C127.875 148.691 127.753 149.044 127.625 149.363L122.497 162.686H120.491L115.374 149.153C115.298 148.951 115.215 148.676 115.124 148.33C115.032 147.983 114.937 147.58 114.839 147.121C114.885 147.876 114.919 148.467 114.942 148.896C114.966 149.325 114.976 149.593 114.976 149.701V162.686H112.97V146.092L112.969 146.091Z" fill="#502118"/>
<path d="M143.656 145.776C145.918 145.776 147.707 146.544 149.025 148.082C150.341 149.62 151 151.719 151 154.382C151 157.044 150.343 159.155 149.03 160.693C147.717 162.231 145.924 162.999 143.656 162.999C141.388 162.999 139.602 162.231 138.282 160.693C136.961 159.155 136.302 157.052 136.302 154.382C136.302 151.711 136.962 149.62 138.282 148.082C139.604 146.544 141.394 145.776 143.656 145.776ZM143.656 147.622C142.147 147.622 140.935 148.235 140.025 149.461C139.116 150.686 138.66 152.319 138.66 154.358C138.66 156.397 139.116 158.039 140.025 159.256C140.935 160.474 142.147 161.083 143.656 161.083C145.165 161.083 146.378 160.474 147.292 159.256C148.206 158.037 148.664 156.405 148.664 154.358C148.664 152.311 148.205 150.686 147.287 149.461C146.368 148.234 145.159 147.622 143.656 147.622Z" fill="#502118"/>
</g>
<defs>
<clipPath id="clip0_1454_133">
<rect width="151" height="163" fill="white"/>
</clipPath>
</defs>
</svg>
